<mxfile host="app.diagrams.net" modified="2021-03-12T23:10:18.263Z" agent="5.0 (Windows NT 10.0; Win64; x64) AppleWebKit/537.36 (KHTML, like Gecko) Chrome/89.0.4389.82 Safari/537.36" etag="6Kp_vhkfyys09fYX9dHF" version="14.4.8" type="github" pages="2">
  <diagram id="FdOuGISEG2kQA_kU1AHl" name="Page-1">
    <mxGraphModel dx="1279" dy="666" grid="1" gridSize="10" guides="1" tooltips="1" connect="1" arrows="1" fold="1" page="1" pageScale="1" pageWidth="827" pageHeight="1169" math="0" shadow="0">
      <root>
        <mxCell id="0" />
        <mxCell id="1" parent="0" />
        <mxCell id="sCyzX5ESXLHQMx8Ad8ml-8" style="edgeStyle=orthogonalEdgeStyle;rounded=0;orthogonalLoop=1;jettySize=auto;html=1;exitX=0.5;exitY=1;exitDx=0;exitDy=0;exitPerimeter=0;entryX=0.5;entryY=0;entryDx=0;entryDy=0;" edge="1" parent="1" source="sCyzX5ESXLHQMx8Ad8ml-1" target="sCyzX5ESXLHQMx8Ad8ml-4">
          <mxGeometry relative="1" as="geometry" />
        </mxCell>
        <mxCell id="sCyzX5ESXLHQMx8Ad8ml-1" value="" style="strokeWidth=2;html=1;shape=mxgraph.flowchart.start_1;whiteSpace=wrap;" vertex="1" parent="1">
          <mxGeometry x="324" y="100" width="180" height="50" as="geometry" />
        </mxCell>
        <mxCell id="sCyzX5ESXLHQMx8Ad8ml-2" value="Start" style="text;html=1;strokeColor=none;align=center;verticalAlign=middle;whiteSpace=wrap;rounded=0;" vertex="1" parent="1">
          <mxGeometry x="394" y="115" width="40" height="20" as="geometry" />
        </mxCell>
        <mxCell id="sCyzX5ESXLHQMx8Ad8ml-10" value="" style="edgeStyle=orthogonalEdgeStyle;rounded=0;orthogonalLoop=1;jettySize=auto;html=1;" edge="1" parent="1" source="sCyzX5ESXLHQMx8Ad8ml-4" target="sCyzX5ESXLHQMx8Ad8ml-9">
          <mxGeometry relative="1" as="geometry" />
        </mxCell>
        <mxCell id="sCyzX5ESXLHQMx8Ad8ml-4" value="" style="shape=parallelogram;perimeter=parallelogramPerimeter;whiteSpace=wrap;html=1;fixedSize=1;fillColor=none;" vertex="1" parent="1">
          <mxGeometry x="332" y="200" width="164" height="90" as="geometry" />
        </mxCell>
        <mxCell id="sCyzX5ESXLHQMx8Ad8ml-5" value="N1, N2" style="text;html=1;strokeColor=none;fillColor=none;align=center;verticalAlign=middle;whiteSpace=wrap;rounded=0;" vertex="1" parent="1">
          <mxGeometry x="376" y="235" width="76" height="20" as="geometry" />
        </mxCell>
        <mxCell id="sCyzX5ESXLHQMx8Ad8ml-13" value="" style="edgeStyle=orthogonalEdgeStyle;rounded=0;orthogonalLoop=1;jettySize=auto;html=1;" edge="1" parent="1" source="sCyzX5ESXLHQMx8Ad8ml-9" target="sCyzX5ESXLHQMx8Ad8ml-11">
          <mxGeometry relative="1" as="geometry" />
        </mxCell>
        <mxCell id="sCyzX5ESXLHQMx8Ad8ml-9" value="" style="rounded=0;whiteSpace=wrap;html=1;fillColor=none;" vertex="1" parent="1">
          <mxGeometry x="319" y="350" width="190" height="60" as="geometry" />
        </mxCell>
        <mxCell id="sCyzX5ESXLHQMx8Ad8ml-15" value="" style="edgeStyle=orthogonalEdgeStyle;rounded=0;orthogonalLoop=1;jettySize=auto;html=1;" edge="1" parent="1" source="sCyzX5ESXLHQMx8Ad8ml-11" target="sCyzX5ESXLHQMx8Ad8ml-14">
          <mxGeometry relative="1" as="geometry" />
        </mxCell>
        <mxCell id="sCyzX5ESXLHQMx8Ad8ml-11" value="" style="shape=document;whiteSpace=wrap;html=1;boundedLbl=1;fillColor=none;" vertex="1" parent="1">
          <mxGeometry x="313" y="480" width="196" height="80" as="geometry" />
        </mxCell>
        <mxCell id="sCyzX5ESXLHQMx8Ad8ml-14" value="" style="strokeWidth=2;html=1;shape=mxgraph.flowchart.terminator;whiteSpace=wrap;fillColor=none;" vertex="1" parent="1">
          <mxGeometry x="349" y="620" width="124" height="60" as="geometry" />
        </mxCell>
        <mxCell id="sCyzX5ESXLHQMx8Ad8ml-16" value="M = N1 * N2" style="text;html=1;strokeColor=none;fillColor=none;align=center;verticalAlign=middle;whiteSpace=wrap;rounded=0;" vertex="1" parent="1">
          <mxGeometry x="332" y="370" width="158" height="20" as="geometry" />
        </mxCell>
        <mxCell id="sCyzX5ESXLHQMx8Ad8ml-17" value="M" style="text;html=1;strokeColor=none;fillColor=none;align=center;verticalAlign=middle;whiteSpace=wrap;rounded=0;" vertex="1" parent="1">
          <mxGeometry x="349" y="500" width="130" height="20" as="geometry" />
        </mxCell>
        <mxCell id="sCyzX5ESXLHQMx8Ad8ml-18" style="edgeStyle=orthogonalEdgeStyle;rounded=0;orthogonalLoop=1;jettySize=auto;html=1;exitX=0.5;exitY=1;exitDx=0;exitDy=0;" edge="1" parent="1" source="sCyzX5ESXLHQMx8Ad8ml-17" target="sCyzX5ESXLHQMx8Ad8ml-17">
          <mxGeometry relative="1" as="geometry" />
        </mxCell>
        <mxCell id="sCyzX5ESXLHQMx8Ad8ml-20" value="Fim" style="text;html=1;strokeColor=none;fillColor=none;align=center;verticalAlign=middle;whiteSpace=wrap;rounded=0;" vertex="1" parent="1">
          <mxGeometry x="391" y="640" width="40" height="20" as="geometry" />
        </mxCell>
      </root>
    </mxGraphModel>
  </diagram>
  <diagram id="OvvjdW4IVv-dUWYWM0gx" name="Page-2">
    <mxGraphModel dx="1279" dy="666" grid="1" gridSize="10" guides="1" tooltips="1" connect="1" arrows="1" fold="1" page="1" pageScale="1" pageWidth="827" pageHeight="1169" math="0" shadow="0">
      <root>
        <mxCell id="5JysBnJvPIBKeSe2e1fp-0" />
        <mxCell id="5JysBnJvPIBKeSe2e1fp-1" parent="5JysBnJvPIBKeSe2e1fp-0" />
        <mxCell id="FCVJmuCLuNN-h4AQEx7M-0" style="edgeStyle=orthogonalEdgeStyle;rounded=0;orthogonalLoop=1;jettySize=auto;html=1;exitX=0.5;exitY=1;exitDx=0;exitDy=0;exitPerimeter=0;entryX=0.5;entryY=0;entryDx=0;entryDy=0;" edge="1" parent="5JysBnJvPIBKeSe2e1fp-1" source="FCVJmuCLuNN-h4AQEx7M-1" target="FCVJmuCLuNN-h4AQEx7M-4">
          <mxGeometry relative="1" as="geometry" />
        </mxCell>
        <mxCell id="FCVJmuCLuNN-h4AQEx7M-1" value="" style="strokeWidth=2;html=1;shape=mxgraph.flowchart.start_1;whiteSpace=wrap;" vertex="1" parent="5JysBnJvPIBKeSe2e1fp-1">
          <mxGeometry x="324" y="100" width="180" height="50" as="geometry" />
        </mxCell>
        <mxCell id="FCVJmuCLuNN-h4AQEx7M-2" value="Start" style="text;html=1;strokeColor=none;align=center;verticalAlign=middle;whiteSpace=wrap;rounded=0;" vertex="1" parent="5JysBnJvPIBKeSe2e1fp-1">
          <mxGeometry x="394" y="115" width="40" height="20" as="geometry" />
        </mxCell>
        <mxCell id="FCVJmuCLuNN-h4AQEx7M-3" value="" style="edgeStyle=orthogonalEdgeStyle;rounded=0;orthogonalLoop=1;jettySize=auto;html=1;" edge="1" parent="5JysBnJvPIBKeSe2e1fp-1" source="FCVJmuCLuNN-h4AQEx7M-4" target="FCVJmuCLuNN-h4AQEx7M-7">
          <mxGeometry relative="1" as="geometry" />
        </mxCell>
        <mxCell id="FCVJmuCLuNN-h4AQEx7M-4" value="" style="shape=parallelogram;perimeter=parallelogramPerimeter;whiteSpace=wrap;html=1;fixedSize=1;fillColor=none;" vertex="1" parent="5JysBnJvPIBKeSe2e1fp-1">
          <mxGeometry x="332" y="200" width="164" height="90" as="geometry" />
        </mxCell>
        <mxCell id="FCVJmuCLuNN-h4AQEx7M-5" value="N1, N2" style="text;html=1;strokeColor=none;fillColor=none;align=center;verticalAlign=middle;whiteSpace=wrap;rounded=0;" vertex="1" parent="5JysBnJvPIBKeSe2e1fp-1">
          <mxGeometry x="376" y="235" width="76" height="20" as="geometry" />
        </mxCell>
        <mxCell id="FCVJmuCLuNN-h4AQEx7M-6" value="" style="edgeStyle=orthogonalEdgeStyle;rounded=0;orthogonalLoop=1;jettySize=auto;html=1;" edge="1" parent="5JysBnJvPIBKeSe2e1fp-1" source="FCVJmuCLuNN-h4AQEx7M-7" target="FCVJmuCLuNN-h4AQEx7M-9">
          <mxGeometry relative="1" as="geometry" />
        </mxCell>
        <mxCell id="RCHjtIIlU7QE-Qjt_o5N-3" value="" style="edgeStyle=orthogonalEdgeStyle;rounded=0;orthogonalLoop=1;jettySize=auto;html=1;" edge="1" parent="5JysBnJvPIBKeSe2e1fp-1" source="FCVJmuCLuNN-h4AQEx7M-7" target="RCHjtIIlU7QE-Qjt_o5N-0">
          <mxGeometry relative="1" as="geometry" />
        </mxCell>
        <mxCell id="FCVJmuCLuNN-h4AQEx7M-7" value="" style="rounded=0;whiteSpace=wrap;html=1;fillColor=none;" vertex="1" parent="5JysBnJvPIBKeSe2e1fp-1">
          <mxGeometry x="319" y="350" width="190" height="60" as="geometry" />
        </mxCell>
        <mxCell id="FCVJmuCLuNN-h4AQEx7M-8" value="" style="edgeStyle=orthogonalEdgeStyle;rounded=0;orthogonalLoop=1;jettySize=auto;html=1;" edge="1" parent="5JysBnJvPIBKeSe2e1fp-1" source="FCVJmuCLuNN-h4AQEx7M-9" target="FCVJmuCLuNN-h4AQEx7M-10">
          <mxGeometry relative="1" as="geometry" />
        </mxCell>
        <mxCell id="FCVJmuCLuNN-h4AQEx7M-9" value="" style="shape=document;whiteSpace=wrap;html=1;boundedLbl=1;fillColor=none;" vertex="1" parent="5JysBnJvPIBKeSe2e1fp-1">
          <mxGeometry x="313" y="480" width="196" height="80" as="geometry" />
        </mxCell>
        <mxCell id="FCVJmuCLuNN-h4AQEx7M-10" value="" style="strokeWidth=2;html=1;shape=mxgraph.flowchart.terminator;whiteSpace=wrap;fillColor=none;" vertex="1" parent="5JysBnJvPIBKeSe2e1fp-1">
          <mxGeometry x="349" y="620" width="124" height="60" as="geometry" />
        </mxCell>
        <mxCell id="FCVJmuCLuNN-h4AQEx7M-11" value="M = N1 / N2" style="text;html=1;strokeColor=none;fillColor=none;align=center;verticalAlign=middle;whiteSpace=wrap;rounded=0;" vertex="1" parent="5JysBnJvPIBKeSe2e1fp-1">
          <mxGeometry x="332" y="370" width="158" height="20" as="geometry" />
        </mxCell>
        <mxCell id="FCVJmuCLuNN-h4AQEx7M-12" value="M" style="text;html=1;strokeColor=none;fillColor=none;align=center;verticalAlign=middle;whiteSpace=wrap;rounded=0;" vertex="1" parent="5JysBnJvPIBKeSe2e1fp-1">
          <mxGeometry x="349" y="500" width="130" height="20" as="geometry" />
        </mxCell>
        <mxCell id="FCVJmuCLuNN-h4AQEx7M-13" style="edgeStyle=orthogonalEdgeStyle;rounded=0;orthogonalLoop=1;jettySize=auto;html=1;exitX=0.5;exitY=1;exitDx=0;exitDy=0;" edge="1" parent="5JysBnJvPIBKeSe2e1fp-1" source="FCVJmuCLuNN-h4AQEx7M-12" target="FCVJmuCLuNN-h4AQEx7M-12">
          <mxGeometry relative="1" as="geometry" />
        </mxCell>
        <mxCell id="FCVJmuCLuNN-h4AQEx7M-14" value="Fim" style="text;html=1;strokeColor=none;fillColor=none;align=center;verticalAlign=middle;whiteSpace=wrap;rounded=0;" vertex="1" parent="5JysBnJvPIBKeSe2e1fp-1">
          <mxGeometry x="391" y="640" width="40" height="20" as="geometry" />
        </mxCell>
        <mxCell id="RCHjtIIlU7QE-Qjt_o5N-5" value="" style="edgeStyle=orthogonalEdgeStyle;rounded=0;orthogonalLoop=1;jettySize=auto;html=1;" edge="1" parent="5JysBnJvPIBKeSe2e1fp-1" source="RCHjtIIlU7QE-Qjt_o5N-0" target="RCHjtIIlU7QE-Qjt_o5N-4">
          <mxGeometry relative="1" as="geometry" />
        </mxCell>
        <mxCell id="RCHjtIIlU7QE-Qjt_o5N-0" value="" style="rhombus;whiteSpace=wrap;html=1;fillColor=none;" vertex="1" parent="5JysBnJvPIBKeSe2e1fp-1">
          <mxGeometry x="610" y="325" width="110" height="110" as="geometry" />
        </mxCell>
        <mxCell id="RCHjtIIlU7QE-Qjt_o5N-8" value="" style="edgeStyle=orthogonalEdgeStyle;rounded=0;orthogonalLoop=1;jettySize=auto;html=1;" edge="1" parent="5JysBnJvPIBKeSe2e1fp-1">
          <mxGeometry relative="1" as="geometry">
            <mxPoint x="568" y="510" as="sourcePoint" />
            <mxPoint x="510" y="510" as="targetPoint" />
          </mxGeometry>
        </mxCell>
        <mxCell id="RCHjtIIlU7QE-Qjt_o5N-4" value="" style="rounded=0;whiteSpace=wrap;html=1;fillColor=none;" vertex="1" parent="5JysBnJvPIBKeSe2e1fp-1">
          <mxGeometry x="570" y="480" width="190" height="60" as="geometry" />
        </mxCell>
        <mxCell id="RCHjtIIlU7QE-Qjt_o5N-7" value="M = 1" style="text;html=1;strokeColor=none;fillColor=none;align=center;verticalAlign=middle;whiteSpace=wrap;rounded=0;" vertex="1" parent="5JysBnJvPIBKeSe2e1fp-1">
          <mxGeometry x="600" y="500" width="130" height="20" as="geometry" />
        </mxCell>
        <mxCell id="RCHjtIIlU7QE-Qjt_o5N-9" value="M = 0" style="text;html=1;strokeColor=none;fillColor=none;align=center;verticalAlign=middle;whiteSpace=wrap;rounded=0;" vertex="1" parent="5JysBnJvPIBKeSe2e1fp-1">
          <mxGeometry x="600" y="370" width="130" height="20" as="geometry" />
        </mxCell>
      </root>
    </mxGraphModel>
  </diagram>
</mxfile>
